<svg width="48" height="48" viewBox="0 0 48 48" fill="none" xmlns="http://www.w3.org/2000/svg">
<g clip-path="url(#clip0_2817_1454)">
<path d="M0 0H48V48H0V0Z" fill="#181C2F"/>
<path d="M38.515 5.25C35.7699 9.08147 32.3348 11.7385 28.2757 13.5148C26.8665 13.1258 25.4205 12.9276 23.9965 12.9423C22.5726 12.9276 21.1266 13.1331 19.7173 13.5148C15.6583 11.7312 12.2232 9.08881 9.47803 5.25C8.64862 7.33456 5.45572 14.5277 9.2872 24.5835C9.2872 24.5835 8.06142 29.8316 10.3148 34.3384C10.3148 34.3384 13.5737 32.863 16.1648 34.9403C18.8732 37.1349 18.0071 39.2488 19.9155 41.0691C21.5597 42.75 24.0039 42.75 24.0039 42.75C24.0039 42.75 26.4481 42.75 28.0922 41.0765C30.0006 39.2635 29.1419 37.1496 31.843 34.9476C34.4267 32.8704 37.693 34.3457 37.693 34.3457C39.939 29.839 38.7206 24.5909 38.7206 24.5909C42.5373 14.5277 39.3518 7.33456 38.515 5.25ZM11.3277 23.1963C9.24316 18.9171 8.67064 13.0451 9.9845 8.40619C11.7241 12.8102 14.0875 14.7846 16.8988 16.8692C15.7097 19.3428 13.471 21.6769 11.3277 23.1963ZM17.3245 30.7344C15.6803 30.0078 15.3353 28.5765 15.3353 28.5765C17.574 27.1672 20.8697 28.2462 20.9725 31.5785C19.2402 30.5289 18.6604 31.3143 17.3245 30.7344ZM23.9965 42.5665C22.8221 42.5665 21.8679 41.7224 21.8679 40.6875C21.8679 39.6525 22.8221 38.8084 23.9965 38.8084C25.1709 38.8084 26.1251 39.6525 26.1251 40.6875C26.1251 41.7297 25.1709 42.5665 23.9965 42.5665ZM30.6759 30.7344C29.34 31.3216 28.7675 30.5289 27.028 31.5785C27.1381 28.2462 30.419 27.1672 32.6651 28.5765C32.6651 28.5691 32.3127 30.0078 30.6759 30.7344ZM36.6654 23.1963C34.5294 21.6769 32.2834 19.3501 31.087 16.8692C33.8982 14.7846 36.269 12.8028 38.0012 8.40619C39.3298 13.0451 38.7573 18.9244 36.6654 23.1963Z" fill="#F7F7F7"/>
</g>
<defs>
<clipPath id="clip0_2817_1454">
<rect width="48" height="48" rx="8" fill="white"/>
</clipPath>
</defs>
</svg>
